<svg xmlns="http://www.w3.org/2000/svg" xmlns:xlink="http://www.w3.org/1999/xlink" width="1000" zoomAndPan="magnify" viewBox="0 0 750 749.999995" height="1000" preserveAspectRatio="xMidYMid meet" version="1.0"><defs><g/><clipPath id="fc71f5c83d"><path d="M 375 0 C 167.894531 0 0 167.894531 0 375 C 0 582.105469 167.894531 750 375 750 C 582.105469 750 750 582.105469 750 375 C 750 167.894531 582.105469 0 375 0 Z M 375 0 " clip-rule="nonzero"/></clipPath><clipPath id="e45bdda6dc"><path d="M 375 750 C 274.878906 750 180.605469 711.03125 109.863281 640.136719 C 38.96875 569.394531 0 475.121094 0 375 C 0 274.878906 38.96875 180.605469 109.863281 109.863281 C 180.605469 38.96875 274.878906 0 375 0 C 475.121094 0 569.394531 38.96875 640.136719 109.863281 C 711.03125 180.753906 750 274.878906 750 375 C 750 475.121094 711.03125 569.394531 640.136719 640.136719 C 569.394531 711.03125 475.121094 750 375 750 Z M 375 22.480469 C 280.875 22.480469 192.296875 59.203125 125.75 125.75 C 59.203125 192.296875 22.480469 280.875 22.480469 375 C 22.480469 469.125 59.203125 557.703125 125.75 624.25 C 192.296875 690.796875 280.875 727.519531 375 727.519531 C 469.125 727.519531 557.703125 690.796875 624.25 624.25 C 690.796875 557.703125 727.519531 469.125 727.519531 375 C 727.519531 280.875 690.796875 192.296875 624.25 125.75 C 557.703125 59.203125 469.125 22.480469 375 22.480469 Z M 375 22.480469 " clip-rule="nonzero"/></clipPath><clipPath id="f21c0e4f23"><path d="M 62.863281 252.667969 L 686.863281 252.667969 L 686.863281 519.667969 L 62.863281 519.667969 Z M 62.863281 252.667969 " clip-rule="nonzero"/></clipPath><clipPath id="cd4a6318d1"><path d="M 110.367188 110.367188 L 639.867188 110.367188 L 639.867188 639.867188 L 110.367188 639.867188 Z M 110.367188 110.367188 " clip-rule="nonzero"/></clipPath></defs><g clip-path="url(#fc71f5c83d)"><rect x="-75" width="900" fill="#ffffff" y="-74.999999" height="899.999994" fill-opacity="1"/></g><g clip-path="url(#e45bdda6dc)"><rect x="-75" width="900" fill="#112241" y="-74.999999" height="899.999994" fill-opacity="1"/></g><g clip-path="url(#f21c0e4f23)"><path fill="#112241" d="M 667.5625 458.054688 C 659.652344 484.988281 647.570312 510.539062 632.582031 534.074219 C 620.207031 553.222656 606.136719 571.222656 590.324219 587.59375 C 588.28125 589.832031 585.996094 591.832031 583.828125 593.945312 C 581.617188 596.015625 579.472656 598.160156 577.21875 600.179688 L 570.367188 606.144531 L 566.941406 609.125 L 563.382812 611.949219 L 556.285156 617.621094 C 553.878906 619.460938 551.398438 621.199219 548.964844 623 C 544.148438 626.683594 539.027344 629.925781 534.011719 633.335938 C 533.289062 633.820312 532.53125 634.328125 531.738281 634.863281 C 530.921875 635.351562 530.074219 635.863281 529.1875 636.398438 C 527.417969 637.453125 525.511719 638.59375 523.484375 639.804688 C 519.480469 642.320312 514.738281 644.691406 509.625 647.410156 C 508.335938 648.074219 507.046875 648.800781 505.683594 649.449219 C 504.316406 650.085938 502.921875 650.734375 501.5 651.394531 C 498.65625 652.707031 495.707031 654.070312 492.667969 655.476562 C 486.433594 657.914062 479.933594 660.835938 472.84375 663.109375 C 444.851562 673.257812 409.921875 679.53125 374.863281 679.679688 C 339.808594 679.53125 304.875 673.257812 276.886719 663.109375 C 269.796875 660.835938 263.296875 657.914062 257.0625 655.476562 C 254.023438 654.070312 251.078125 652.707031 248.230469 651.394531 C 246.808594 650.734375 245.414062 650.085938 244.046875 649.453125 C 242.6875 648.800781 241.394531 648.074219 240.109375 647.410156 C 234.992188 644.691406 230.25 642.320312 226.246094 639.804688 C 224.21875 638.59375 222.3125 637.453125 220.546875 636.398438 C 219.660156 635.867188 218.808594 635.355469 217.992188 634.863281 C 217.203125 634.332031 216.441406 633.820312 215.71875 633.335938 C 196.675781 620.855469 178.785156 606.679688 162.519531 590.753906 C 145.367188 573.621094 130.371094 554.429688 117.148438 534.078125 C 102.15625 510.542969 90.078125 484.988281 82.167969 458.054688 C 73.929688 431.210938 70.121094 403.039062 69.875 374.863281 C 70.121094 346.691406 73.929688 318.519531 82.167969 291.675781 C 90.078125 264.742188 102.15625 239.191406 117.144531 215.65625 C 129.519531 196.503906 143.589844 178.503906 159.402344 162.132812 C 161.449219 159.898438 163.730469 157.894531 165.902344 155.785156 C 168.109375 153.710938 170.253906 151.570312 172.507812 149.546875 L 179.363281 143.585938 L 182.789062 140.601562 L 186.34375 137.777344 L 193.441406 132.105469 C 195.847656 130.269531 198.328125 128.53125 200.765625 126.730469 C 205.578125 123.046875 210.699219 119.804688 215.714844 116.394531 C 216.4375 115.90625 217.199219 115.398438 217.988281 114.867188 C 218.808594 114.375 219.65625 113.867188 220.542969 113.332031 C 222.3125 112.273438 224.214844 111.136719 226.242188 109.925781 C 230.25 107.40625 234.988281 105.039062 240.105469 102.316406 C 241.394531 101.65625 242.683594 100.929688 244.046875 100.277344 C 245.414062 99.640625 246.808594 98.992188 248.230469 98.335938 C 251.074219 97.019531 254.023438 95.660156 257.0625 94.253906 C 263.296875 91.816406 269.796875 88.890625 276.886719 86.621094 C 304.875 76.472656 339.808594 70.195312 374.863281 70.050781 C 409.917969 70.195312 444.851562 76.472656 472.839844 86.621094 C 479.933594 88.890625 486.429688 91.816406 492.667969 94.253906 C 495.707031 95.660156 498.652344 97.019531 501.496094 98.335938 C 502.917969 98.992188 504.316406 99.640625 505.683594 100.277344 C 507.042969 100.925781 508.332031 101.65625 509.621094 102.316406 C 514.738281 105.035156 519.480469 107.40625 523.484375 109.921875 C 525.511719 111.136719 527.414062 112.273438 529.183594 113.332031 C 530.066406 113.863281 530.917969 114.375 531.738281 114.867188 C 532.527344 115.398438 533.289062 115.90625 534.011719 116.390625 C 553.054688 128.871094 570.945312 143.050781 587.207031 158.972656 C 604.363281 176.109375 619.355469 195.300781 632.578125 215.652344 C 647.570312 239.1875 659.652344 264.742188 667.5625 291.675781 C 675.796875 318.519531 679.605469 346.691406 679.851562 374.863281 C 679.605469 403.039062 675.796875 431.210938 667.5625 458.054688 Z M 686.863281 374.65625 L 686.855469 374.632812 C 686.601562 345.863281 682.730469 317.078125 674.351562 289.632812 C 666.289062 262.101562 653.945312 235.96875 638.554688 211.964844 L 631.15625 200.84375 C 631.15625 200.84375 629.015625 197.851562 625.808594 193.367188 C 622.722656 188.789062 617.996094 183.148438 613.480469 177.347656 C 608.617188 171.839844 603.957031 166.152344 600.03125 162.273438 C 596.222656 158.292969 593.679688 155.644531 593.679688 155.644531 C 593.679688 155.644531 593.039062 154.988281 591.878906 153.875 C 590.722656 152.757812 589.074219 151.164062 587.09375 149.25 C 583.226562 145.3125 577.617188 140.570312 572.117188 135.703125 C 569.292969 133.355469 566.386719 131.109375 563.703125 128.949219 C 562.355469 127.878906 561.050781 126.84375 559.816406 125.859375 C 558.539062 124.933594 557.328125 124.0625 556.207031 123.257812 C 551.742188 120.03125 548.761719 117.882812 548.761719 117.882812 C 548.761719 117.882812 548.113281 117.355469 547.0625 116.675781 C 546.023438 115.980469 544.636719 115.054688 543.253906 114.125 C 540.484375 112.269531 537.710938 110.414062 537.710938 110.414062 C 536.96875 109.917969 536.195312 109.390625 535.386719 108.847656 C 534.550781 108.339844 533.683594 107.816406 532.78125 107.269531 C 530.96875 106.179688 529.023438 105.011719 526.953125 103.769531 C 522.859375 101.1875 518.011719 98.75 512.777344 95.964844 C 511.460938 95.28125 510.140625 94.539062 508.75 93.871094 C 507.351562 93.214844 505.921875 92.550781 504.472656 91.875 C 501.558594 90.527344 498.542969 89.128906 495.433594 87.6875 C 489.054688 85.179688 482.402344 82.191406 475.144531 79.855469 C 446.5 69.453125 410.734375 63.003906 374.863281 62.863281 C 338.996094 63.003906 303.226562 69.453125 274.582031 79.859375 C 267.328125 82.191406 260.671875 85.183594 254.292969 87.691406 C 251.183594 89.128906 248.167969 90.527344 245.257812 91.875 C 243.804688 92.554688 242.375 93.21875 240.976562 93.871094 C 239.585938 94.539062 238.265625 95.28125 236.949219 95.964844 C 231.714844 98.75 226.867188 101.1875 222.773438 103.769531 C 220.703125 105.011719 218.757812 106.183594 216.945312 107.269531 C 216.046875 107.816406 215.175781 108.34375 214.34375 108.847656 C 213.53125 109.394531 212.757812 109.917969 212.015625 110.414062 C 212.015625 110.414062 209.246094 112.269531 206.472656 114.125 C 205.089844 115.054688 203.703125 115.980469 202.664062 116.679688 C 201.617188 117.355469 200.96875 117.882812 200.96875 117.882812 C 200.96875 117.882812 197.988281 120.03125 193.519531 123.257812 C 192.402344 124.0625 191.191406 124.933594 189.914062 125.859375 C 188.675781 126.84375 187.375 127.878906 186.027344 128.949219 C 183.34375 131.109375 180.4375 133.355469 177.613281 135.703125 C 172.109375 140.570312 166.5 145.3125 162.636719 149.25 C 160.652344 151.164062 159.003906 152.757812 157.851562 153.875 C 156.691406 154.988281 156.046875 155.644531 156.046875 155.644531 C 156.046875 155.644531 153.507812 158.292969 149.695312 162.273438 C 145.773438 166.152344 141.109375 171.839844 136.246094 177.347656 C 131.734375 183.148438 127.003906 188.792969 123.917969 193.367188 C 120.710938 197.855469 118.570312 200.847656 118.570312 200.847656 L 111.175781 211.964844 C 95.785156 235.96875 83.441406 262.101562 75.378906 289.632812 C 66.996094 317.082031 63.128906 345.867188 62.875 374.636719 L 62.867188 374.65625 L 62.863281 374.863281 L 62.867188 375.070312 L 62.875 375.097656 C 63.128906 403.863281 66.996094 432.652344 75.378906 460.097656 C 83.441406 487.628906 95.785156 513.761719 111.175781 537.765625 L 118.574219 548.882812 C 118.574219 548.882812 120.714844 551.875 123.917969 556.359375 C 127.007812 560.941406 131.734375 566.582031 136.246094 572.382812 C 141.109375 577.890625 145.773438 583.578125 149.695312 587.453125 C 153.507812 591.433594 156.046875 594.085938 156.046875 594.085938 C 156.046875 594.085938 156.691406 594.742188 157.851562 595.855469 C 159.003906 596.96875 160.652344 598.566406 162.636719 600.480469 C 166.5 604.417969 172.109375 609.160156 177.613281 614.027344 C 180.4375 616.371094 183.34375 618.621094 186.027344 620.78125 C 187.375 621.851562 188.675781 622.886719 189.914062 623.871094 C 191.191406 624.792969 192.402344 625.667969 193.519531 626.472656 C 197.988281 629.699219 200.96875 631.847656 200.96875 631.847656 C 200.96875 631.847656 201.617188 632.375 202.664062 633.050781 C 203.707031 633.746094 205.089844 634.671875 206.472656 635.601562 C 209.246094 637.457031 212.019531 639.3125 212.019531 639.3125 C 212.757812 639.8125 213.535156 640.335938 214.34375 640.882812 C 215.175781 641.390625 216.046875 641.914062 216.949219 642.460938 C 218.757812 643.546875 220.707031 644.714844 222.777344 645.960938 C 226.871094 648.542969 231.71875 650.980469 236.949219 653.765625 C 238.265625 654.449219 239.589844 655.191406 240.980469 655.859375 C 242.378906 656.511719 243.808594 657.179688 245.257812 657.855469 C 248.167969 659.203125 251.1875 660.601562 254.296875 662.042969 C 260.675781 664.546875 267.328125 667.535156 274.582031 669.875 C 303.226562 680.277344 338.996094 686.722656 374.863281 686.863281 C 410.734375 686.722656 446.5 680.277344 475.148438 669.871094 C 482.402344 667.535156 489.058594 664.546875 495.433594 662.039062 C 498.546875 660.601562 501.558594 659.203125 504.472656 657.851562 C 505.925781 657.175781 507.351562 656.511719 508.753906 655.859375 C 510.144531 655.191406 511.464844 654.449219 512.78125 653.765625 C 518.015625 650.980469 522.859375 648.542969 526.957031 645.960938 C 529.027344 644.714844 530.96875 643.546875 532.78125 642.460938 C 533.683594 641.914062 534.554688 641.386719 535.386719 640.882812 C 536.199219 640.335938 536.972656 639.8125 537.710938 639.3125 C 537.710938 639.3125 540.484375 637.457031 543.253906 635.601562 C 544.640625 634.671875 546.027344 633.746094 547.0625 633.050781 C 548.113281 632.375 548.761719 631.847656 548.761719 631.847656 C 548.761719 631.847656 551.742188 629.699219 556.207031 626.472656 C 557.328125 625.667969 558.539062 624.792969 559.816406 623.871094 C 561.050781 622.886719 562.355469 621.851562 563.703125 620.78125 C 566.386719 618.621094 569.292969 616.371094 572.117188 614.027344 C 577.617188 609.160156 583.226562 604.417969 587.09375 600.480469 C 589.074219 598.566406 590.722656 596.96875 591.878906 595.855469 C 593.039062 594.742188 593.679688 594.085938 593.679688 594.085938 C 593.679688 594.085938 596.222656 591.433594 600.03125 587.453125 C 603.957031 583.578125 608.617188 577.890625 613.480469 572.382812 C 617.996094 566.582031 622.722656 560.9375 625.808594 556.359375 C 629.019531 551.871094 631.15625 548.882812 631.15625 548.882812 L 638.554688 537.765625 C 653.945312 513.761719 666.289062 487.625 674.351562 460.097656 C 682.730469 432.648438 686.601562 403.863281 686.855469 375.09375 L 686.863281 375.070312 L 686.863281 374.65625 " fill-opacity="1" fill-rule="nonzero"/></g><path fill="#f2dea2" d="M 375.171875 121.773438 C 243.871094 121.773438 135.457031 221.207031 123.015625 350.359375 C 131.136719 343.808594 139.34375 336.480469 147.902344 328.839844 C 156.566406 321.089844 165.527344 313.085938 174.667969 305.707031 C 184.226562 297.902344 232.878906 295.046875 244.394531 306.128906 C 258.882812 320 272.613281 332.628906 285.207031 343.699219 C 285.382812 343.816406 285.554688 343.925781 285.730469 344.078125 C 332.410156 385.140625 357.566406 400.175781 365.273438 404.324219 C 383.074219 393.730469 408.980469 393.578125 423.796875 409.710938 C 433.34375 407.652344 443.285156 408.972656 452.386719 413.171875 C 451.265625 406.140625 451.730469 398.878906 453.953125 392.175781 C 456.902344 383.226562 464.292969 370.828125 482.703125 362.542969 C 504.203125 352.765625 528.839844 355.519531 547.617188 367.667969 C 534.683594 346.734375 517.027344 337.417969 505.738281 333.433594 C 486.675781 326.597656 469.074219 328.21875 460.058594 332.867188 C 458.632812 333.605469 457.414062 334.414062 456.46875 335.261719 C 458.15625 337.265625 459.503906 339.984375 460.332031 343.242188 C 462.769531 352.84375 459.917969 364.957031 448.03125 370.324219 C 439.234375 374.289062 429.917969 373.070312 422.449219 366.984375 C 412.074219 358.515625 407.6875 342.792969 411.246094 326.910156 C 416.613281 302.898438 433.628906 290.53125 446.964844 284.390625 C 468.300781 274.570312 495.242188 273.898438 513.476562 282.496094 C 539.582031 275.628906 569.550781 280.679688 594.132812 296.148438 C 605.835938 303.527344 615.601562 312.847656 623.15625 323.613281 C 599.421875 207.609375 497.519531 121.773438 375.171875 121.773438 Z M 501.371094 402.125 C 499.957031 402.320312 498.617188 402.722656 497.433594 403.265625 C 498.097656 403.660156 498.75 404.09375 499.378906 404.585938 C 505.5 409.332031 509.332031 419.042969 504.105469 429.992188 C 500.859375 436.851562 493.914062 441.609375 485.535156 442.707031 C 483.867188 442.925781 482.214844 442.925781 480.570312 442.839844 C 482.453125 447.367188 483.726562 452.089844 484.324219 456.914062 C 493.9375 457.304688 504.539062 452.265625 512.257812 443.25 C 520.511719 433.597656 523.296875 422.164062 519.757812 412.574219 C 515.46875 404.976562 508.613281 401.035156 501.371094 402.125 " fill-opacity="1" fill-rule="nonzero"/><path fill="#ffffff" d="M 628.28125 367.234375 C 618.832031 353.800781 599.433594 350.90625 588.875 353.34375 C 585.871094 354.027344 583.289062 354.976562 580.972656 356.21875 C 572.621094 360.507812 567.703125 368.660156 568.300781 377.042969 C 568.789062 383.878906 572.71875 389.039062 579.078125 391.226562 C 582.769531 392.46875 586.578125 390.300781 588.332031 387.582031 C 589.886719 385.207031 589.691406 382.941406 587.765625 380.886719 C 586.664062 379.699219 586.121094 378.085938 586.261719 376.476562 C 586.402344 374.855469 587.242188 373.382812 588.546875 372.414062 C 594.425781 368.050781 602.503906 368.429688 609.65625 373.375 C 617.351562 378.707031 623.65625 388.855469 626.878906 403.070312 C 627.890625 393.871094 628.457031 384.574219 628.457031 375.171875 C 628.457031 372.492188 628.378906 369.890625 628.28125 367.234375 Z M 429.664062 358.132812 C 432.527344 360.484375 437.230469 362.707031 443.328125 359.929688 C 446.984375 358.265625 449.109375 355.410156 449.609375 351.425781 C 450.132812 347.28125 448.707031 343.839844 447.824219 342.71875 C 446.417969 342.5 445.144531 341.792969 444.230469 340.671875 C 443.054688 339.246094 442.652344 337.308594 443.152344 335.511719 C 444.613281 330.339844 448.652344 325.910156 454.835938 322.730469 C 468.039062 315.917969 488.539062 315.675781 507.546875 322.003906 C 526.355469 315.632812 564.839844 320.445312 580.632812 343.894531 C 582.429688 343.242188 584.324219 342.675781 586.347656 342.230469 C 595.503906 340.117188 610.636719 340.726562 623.394531 347.867188 C 616.667969 330.796875 604.507812 316.167969 588.058594 305.804688 C 565.480469 291.609375 537.949219 287.199219 514.480469 294.058594 C 513.042969 294.460938 511.507812 294.320312 510.210938 293.613281 C 495.136719 285.597656 470.554688 286.089844 451.730469 294.753906 C 440.738281 299.816406 426.726562 309.941406 422.394531 329.40625 C 419.390625 342.71875 423.886719 353.417969 429.664062 358.132812 Z M 487.40625 372.9375 C 475.800781 378.152344 467.996094 386.035156 464.785156 395.753906 C 461.910156 404.453125 462.859375 414.402344 467.308594 422.359375 C 467.917969 423.339844 468.617188 424.539062 469.445312 425.453125 C 473.277344 429.992188 478.542969 432.148438 484.0625 431.386719 C 488.503906 430.796875 492.238281 428.390625 493.796875 425.09375 C 496.472656 419.488281 494.710938 415.40625 492.378906 413.597656 C 491.160156 412.652344 490.082031 412.5625 489.832031 412.75 C 487.960938 414.339844 485.304688 414.5 483.203125 413.238281 C 481.113281 411.976562 480.070312 409.515625 480.601562 407.121094 C 482.507812 398.640625 490.019531 392.238281 499.738281 390.835938 C 509.230469 389.464844 522.011719 393.078125 529.851562 407.195312 C 529.882812 407.25 529.894531 407.304688 529.925781 407.359375 C 529.925781 407.371094 529.925781 407.371094 529.925781 407.371094 C 530.492188 408.351562 531.039062 409.332031 531.460938 410.300781 C 538.046875 424.648438 537.972656 442.335938 531.222656 458.699219 C 523.527344 477.347656 508.035156 492.292969 487.328125 501.15625 C 488.070312 506.835938 487.863281 512.464844 486.761719 517.898438 C 499.042969 513.304688 513.828125 513.621094 526.953125 519.292969 C 582.964844 476.617188 569.433594 415.839844 560.070312 397.640625 C 546.757812 371.851562 514.152344 360.800781 487.40625 372.9375 Z M 525.484375 531.15625 C 525.320312 531.089844 525.160156 531.046875 524.996094 530.960938 C 509.808594 523.15625 490.464844 524.972656 480.015625 535.207031 L 478.828125 536.480469 C 478.261719 537.449219 477.511719 538.460938 476.628906 539.515625 C 474.59375 542.882812 473.582031 546.875 473.851562 550.6875 C 474.191406 557.652344 478.109375 562.8125 483.191406 563.085938 C 488.601562 563.117188 490.335938 560.113281 490.945312 558.742188 C 491.738281 556.945312 491.859375 554.464844 490.367188 552.960938 C 488.84375 551.4375 488.308594 549.171875 488.984375 547.117188 C 489.671875 545.070312 491.445312 543.589844 493.589844 543.273438 C 497.703125 542.675781 501.644531 543.035156 505.019531 544.265625 C 505.019531 544.265625 505.03125 544.265625 505.03125 544.265625 C 505.09375 544.285156 505.160156 544.316406 505.226562 544.339844 C 514.195312 547.34375 520.292969 555.976562 521.316406 567.453125 C 521.742188 572.152344 521.238281 577.640625 519.496094 583.234375 C 529.566406 576.257812 539.125 568.527344 548.148438 560.070312 C 543.316406 543.554688 533.34375 535.261719 525.484375 531.15625 Z M 475.355469 498.835938 C 474.277344 494.167969 472.460938 489.636719 469.976562 485.445312 C 469.019531 483.800781 468.933594 481.808594 469.726562 480.089844 C 472.371094 474.503906 473.613281 468.355469 473.296875 462.28125 C 473.003906 451.796875 468.507812 441.269531 460.929688 433.289062 C 450.535156 422.132812 436.1875 417.660156 423.394531 421.578125 C 421.109375 422.339844 418.59375 421.480469 417.136719 419.542969 C 406.273438 404.910156 382.953125 405.707031 368.855469 415.558594 C 360.355469 421.4375 355.640625 430.070312 355.554688 439.921875 C 355.507812 445.820312 357.5 450.535156 361.019531 452.820312 C 363.652344 454.519531 366.820312 454.683594 369.964844 453.257812 C 371.382812 452.636719 372.65625 450.753906 373.179688 448.554688 C 373.699219 446.398438 373.277344 445.027344 373.070312 444.777344 C 370.359375 443.796875 368.964844 441.054688 369.605469 438.234375 C 371.957031 428.078125 380.886719 421.511719 391.433594 422.21875 C 400.25 422.578125 410.277344 427.773438 414.535156 438.265625 C 424.453125 436.035156 435.25 438.648438 443.992188 445.679688 C 461.386719 459.722656 464.796875 486.96875 451.777344 507.6875 C 445.710938 517.191406 437.015625 524.515625 425.878906 529.480469 C 416.875 533.464844 407.492188 535.207031 398.050781 535.207031 C 396.070312 535.207031 394.089844 535.121094 392.109375 534.96875 C 406.335938 540.933594 422.035156 545.363281 438.703125 546.636719 L 439.636719 546.636719 C 450.035156 546.636719 460.417969 541.445312 467.441406 532.722656 C 468.214844 531.570312 468.933594 530.535156 469.726562 529.621094 C 475.800781 520.640625 477.804688 509.710938 475.355469 498.835938 Z M 300.457031 529.503906 C 298.359375 533.953125 295.667969 537.863281 292.445312 541.140625 C 294.917969 543.261719 297.847656 545.832031 301.175781 548.769531 C 317.769531 563.367188 342.839844 585.433594 368.746094 602.582031 L 369.902344 603.363281 C 387.15625 614.871094 402.070312 624.820312 416.851562 625.007812 C 427.316406 623.285156 437.625 620.871094 447.726562 617.84375 C 428.414062 614.6875 407.042969 605.160156 382.746094 589.058594 C 353.300781 569.550781 320.46875 544.882812 300.457031 529.503906 Z M 320.707031 486.175781 C 320.738281 486.207031 320.78125 486.242188 320.804688 486.261719 C 320.816406 486.273438 320.828125 486.285156 320.828125 486.285156 C 322.546875 488.003906 324.070312 489.539062 325.691406 491.050781 C 325.691406 491.050781 325.703125 491.050781 325.703125 491.050781 C 325.726562 491.074219 325.746094 491.097656 325.769531 491.105469 C 325.769531 491.117188 325.78125 491.117188 325.78125 491.128906 C 325.800781 491.140625 325.8125 491.160156 325.835938 491.171875 C 351.15625 513.890625 389.496094 533.082031 421.238281 519.0625 C 430.277344 515.023438 437.308594 509.144531 442.121094 501.601562 C 452.101562 485.707031 449.792969 465.035156 436.839844 454.550781 C 428.183594 447.605469 418.867188 448.019531 413.074219 450.730469 C 406.621094 453.867188 403.234375 459.875 404.105469 466.753906 C 404.8125 472.460938 407.71875 476.0625 411.910156 476.398438 C 414.730469 476.769531 418.34375 475.082031 419.5625 470.980469 C 420.28125 468.539062 422.523438 467.148438 425.09375 466.894531 C 427.652344 466.941406 429.871094 468.648438 430.535156 471.121094 C 432.855469 479.6875 429.621094 488.855469 421.882812 495.636719 C 412.195312 504.148438 394.285156 509.363281 376.171875 501.828125 C 351.65625 491.574219 334.671875 471.175781 319.695312 453.179688 C 318.136719 451.308594 316.625 449.5 315.132812 447.726562 C 318.324219 459.375 318.148438 470.390625 314.449219 479.699219 C 316.515625 481.941406 318.585938 484.128906 320.707031 486.175781 Z M 247.507812 423.230469 C 270.316406 429.121094 285.664062 443.535156 289.605469 462.78125 C 290.226562 465.863281 288.246094 468.886719 285.152344 469.519531 C 284.96875 469.550781 284.773438 469.550781 284.585938 469.574219 C 284.390625 469.597656 284.207031 469.628906 284.011719 469.628906 C 283.988281 469.628906 283.976562 469.617188 283.957031 469.617188 C 283.921875 469.617188 283.890625 469.617188 283.855469 469.605469 C 283.792969 469.617188 283.75 469.628906 283.683594 469.628906 C 280.917969 469.878906 279.796875 473.734375 279.6875 474.199219 C 278.992188 477.519531 279.65625 483.855469 286.546875 486.566406 C 290.191406 487.949219 293.425781 486.90625 295.496094 485.804688 C 298.304688 484.28125 300.828125 481.613281 302.59375 478.328125 C 302.636719 478.238281 302.648438 478.140625 302.691406 478.054688 C 305.53125 472.621094 310.648438 457.402344 296.648438 433.246094 C 294.992188 430.394531 293.144531 427.78125 291.128906 425.484375 C 291.117188 425.476562 291.109375 425.453125 291.097656 425.441406 C 291.074219 425.421875 291.054688 425.410156 291.042969 425.386719 C 267.617188 397.410156 216.929688 387.058594 173.167969 401.351562 C 156.28125 406.871094 140.847656 415.613281 127.171875 427.25 C 129.285156 437.40625 132.039062 447.496094 135.457031 457.394531 C 169.652344 422.960938 216.625 415.210938 247.507812 423.230469 Z M 293.566406 498.304688 C 292.414062 498.488281 291.261719 498.609375 290.105469 498.609375 C 287.503906 498.609375 284.933594 498.148438 282.464844 497.214844 C 270.21875 492.414062 266.667969 480.722656 268.519531 471.871094 C 269.226562 468.484375 270.675781 465.65625 272.613281 463.433594 C 255.792969 453.734375 236.742188 450.511719 217.484375 453.777344 C 231.070312 455.933594 243.644531 461.605469 253.726562 470.566406 C 268.691406 483.878906 275.179688 502.429688 271.089844 520.207031 C 270.488281 522.816406 268.027344 524.101562 265.449219 524.625 C 262.761719 524.59375 260.464844 522.6875 259.929688 520.054688 C 259.441406 517.636719 257.175781 516.667969 255.378906 516.570312 C 254.183594 516.394531 250.144531 516.679688 248.367188 522.164062 C 246.933594 526.550781 248.226562 530.1875 249.554688 532.472656 C 252.953125 538.679688 259.972656 542 267.636719 540.988281 C 272.46875 540.433594 276.714844 538.90625 280.351562 536.449219 C 286.035156 532.605469 290.074219 526.660156 292.328125 518.824219 C 294.015625 512.683594 294.417969 505.660156 293.566406 498.304688 Z M 145.179688 355.0625 C 148.683594 355.671875 151.601562 357.242188 153.832031 359.59375 C 166.777344 348.335938 178.925781 343.742188 187.875 346.976562 C 189.933594 347.714844 191.71875 348.878906 193.1875 350.371094 C 199.761719 342.21875 206.632812 338.199219 213.992188 338.136719 L 214.164062 338.136719 C 222.742188 338.136719 230.886719 343.609375 238.941406 354.824219 C 242.066406 352.113281 245.808594 350.554688 250.023438 350.316406 C 256.542969 349.992188 263.292969 352.765625 269.53125 356.804688 C 269.574219 355.476562 269.707031 354.183594 270.054688 352.960938 C 270.488281 351.417969 271.292969 349.609375 272.722656 347.878906 C 261.378906 337.765625 249.25 326.574219 236.492188 314.371094 C 230.078125 308.199219 188.058594 309.496094 181.855469 314.554688 C 172.917969 321.785156 164.066406 329.6875 155.5 337.339844 C 148.269531 343.808594 141.28125 350.046875 134.324219 355.835938 C 138.09375 354.847656 141.835938 354.464844 145.179688 355.0625 Z M 260.746094 506.097656 C 259.808594 496.222656 254.78125 486.773438 246.136719 479.089844 C 232.933594 467.34375 208.632812 458.460938 179.90625 468.550781 C 169.390625 475.203125 159.757812 483.640625 151.199219 493.644531 C 153.398438 497.78125 155.519531 501.546875 157.621094 505.042969 C 170.707031 491.257812 189.824219 485.664062 204.300781 486.382812 C 218.453125 487.101562 229.699219 493.261719 235.175781 503.300781 C 235.992188 504.789062 236.089844 506.578125 235.457031 508.15625 C 234.816406 509.742188 233.5 510.953125 231.875 511.464844 C 225.367188 513.523438 224.09375 518.222656 223.898438 520.824219 C 223.570312 525.320312 225.910156 529.699219 229.578125 531.582031 C 229.667969 531.625 229.753906 531.667969 229.839844 531.722656 C 231.929688 532.671875 234.433594 532.824219 237.179688 532.160156 C 235.992188 527.769531 236.054688 523.101562 237.515625 518.628906 C 240.335938 509.972656 247.78125 504.683594 256.03125 505.171875 C 257.675781 505.269531 259.265625 505.585938 260.746094 506.097656 " fill-opacity="1" fill-rule="nonzero"/><path fill="#27498c" d="M 603.15625 382.746094 C 602.546875 382.332031 601.589844 381.734375 600.480469 381.308594 C 601.339844 385.445312 600.492188 389.824219 597.890625 393.808594 C 596.039062 396.671875 593.523438 398.933594 590.683594 400.503906 C 598.085938 408.210938 603.34375 419.574219 605.890625 433.714844 C 608.480469 447.988281 608.121094 465.253906 604.160156 483.476562 C 606.695312 478.097656 609.070312 472.613281 611.234375 467.015625 C 611.269531 466.863281 611.289062 466.710938 611.332031 466.570312 C 626.203125 415.078125 612.476562 389.222656 603.15625 382.746094 Z M 526.824219 330.929688 C 537.722656 337.601562 549.652344 348.074219 558.992188 364.339844 C 561.257812 358.492188 565.242188 353.265625 570.554688 349.328125 C 561.070312 336.152344 541.867188 331.179688 526.824219 330.929688 Z M 501.382812 563.335938 C 498.214844 570.585938 491.050781 574.753906 482.625 574.484375 C 473.382812 573.972656 465.992188 567.136719 463.421875 557.480469 C 458.273438 558.078125 453.257812 558.371094 448.3125 558.371094 C 445.332031 558.371094 442.371094 558.261719 439.410156 558.054688 L 438.375 558.054688 C 438.363281 558.054688 438.34375 558.046875 438.332031 558.046875 C 438.199219 558.046875 438.070312 558.046875 437.949219 558.046875 C 437.929688 558.046875 437.929688 558.035156 437.917969 558.035156 C 437.101562 558.023438 436.21875 557.980469 435.445312 557.828125 C 435.359375 557.816406 435.292969 557.773438 435.207031 557.75 C 420.585938 556.359375 406.71875 552.808594 393.90625 547.976562 C 418.246094 565.773438 444.058594 580.515625 466.796875 583.78125 C 483.933594 586.285156 496.039062 582.320312 500.773438 572.601562 C 502.722656 568.628906 503.039062 564.230469 502.339844 560.527344 C 502.089844 561.476562 501.796875 562.410156 501.382812 563.335938 Z M 413.445312 487.832031 C 412.628906 487.875 411.800781 487.839844 410.953125 487.765625 C 403.605469 487.15625 394.449219 481.648438 392.785156 468.160156 C 391.5 457.894531 395.808594 448.507812 404.191406 442.738281 C 401.972656 436.949219 396.09375 433.824219 390.976562 433.617188 C 389.234375 433.464844 384.542969 433.726562 382.015625 437.667969 C 383.714844 439.824219 384.71875 442.6875 384.824219 445.972656 C 385.042969 452.460938 381.605469 460.613281 374.605469 463.683594 C 367.953125 466.691406 360.703125 466.222656 354.792969 462.390625 C 347.953125 457.9375 344.058594 449.695312 344.144531 439.8125 C 344.230469 429.109375 348.269531 419.5 355.574219 411.964844 C 344.382812 405.410156 320.597656 389.660156 281.332031 355.378906 C 281.148438 355.664062 281.070312 355.914062 281.027344 356.074219 C 280.277344 358.699219 282.148438 365.285156 289.878906 375.191406 C 290.683594 376.074219 291.738281 377.359375 292.804688 378.644531 C 294.808594 381.082031 294.480469 384.71875 292.054688 386.710938 C 290.988281 387.601562 289.691406 388.039062 288.40625 388.039062 C 286.785156 388.039062 285.175781 387.339844 284.0625 385.980469 L 283.988281 385.894531 C 283.03125 384.726562 282.082031 383.574219 281.125 382.507812 C 281.113281 382.484375 281.101562 382.476562 281.09375 382.453125 C 281.082031 382.453125 281.070312 382.441406 281.070312 382.429688 C 269.617188 369.226562 258.023438 361.234375 250.675781 361.703125 C 248.464844 361.835938 246.726562 362.824219 245.210938 364.730469 C 246.671875 367.277344 248.085938 369.910156 249.4375 372.675781 C 250.816406 375.507812 249.652344 378.914062 246.8125 380.296875 C 244.015625 381.667969 240.5625 380.503906 239.179688 377.664062 C 237.125 373.449219 234.933594 369.5 232.648438 365.917969 C 225.921875 355.195312 219.53125 349.542969 214.152344 349.542969 L 214.089844 349.542969 C 208.9375 349.585938 203.050781 354.855469 197.050781 364.773438 C 195.777344 366.898438 193.328125 367.972656 190.878906 367.386719 C 188.472656 366.808594 186.699219 364.773438 186.480469 362.3125 C 186.15625 358.492188 184.5 357.894531 183.957031 357.6875 C 179.632812 356.109375 169.203125 360.058594 156.597656 372.601562 C 151.601562 377.488281 146.519531 383.496094 141.46875 390.488281 C 140.347656 392.03125 138.605469 392.847656 136.839844 392.847656 C 135.675781 392.847656 134.511719 392.511719 133.5 391.769531 C 130.941406 389.929688 130.363281 386.359375 132.214844 383.804688 C 136.675781 377.640625 141.171875 372.199219 145.648438 367.507812 C 144.984375 366.789062 144.167969 366.460938 143.210938 366.296875 C 137.089844 365.265625 126.097656 370.96875 121.785156 375.53125 C 121.808594 388.789062 122.839844 401.820312 124.824219 414.445312 C 137.960938 404.179688 152.515625 396.3125 168.234375 391 C 174.691406 384.238281 179.621094 375.628906 179.675781 375.539062 C 181.222656 372.796875 184.707031 371.851562 187.449219 373.394531 C 190.195312 374.964844 191.152344 378.4375 189.59375 381.179688 C 189.496094 381.363281 188.355469 383.335938 186.492188 386.152344 C 229.863281 377.675781 274.875 389.507812 298.78125 416.90625 C 308.9375 422.449219 318.007812 433.3125 328.46875 445.875 C 342.609375 462.867188 358.632812 482.136719 380.558594 491.304688 C 393.558594 496.703125 406.21875 493.511719 413.445312 487.832031 Z M 311.683594 401.363281 C 310.5625 402.820312 308.875 403.582031 307.175781 403.582031 C 305.945312 403.582031 304.726562 403.191406 303.679688 402.386719 C 301.851562 400.96875 300.851562 399.957031 300.851562 399.957031 C 298.652344 397.726562 298.664062 394.113281 300.894531 391.890625 C 303.113281 389.691406 306.695312 389.691406 308.894531 391.871094 C 309.015625 391.96875 309.625 392.566406 310.660156 393.359375 C 313.152344 395.289062 313.609375 398.878906 311.683594 401.363281 Z M 224.507812 541.804688 C 217.636719 537.90625 211.007812 534.921875 204.585938 532.84375 C 223.046875 545.484375 240.367188 565.480469 255.5 582.976562 C 264.6875 593.601562 273.363281 603.605469 280.796875 610.277344 C 296.277344 616.480469 312.203125 621.097656 328.457031 624.125 C 313.347656 615.425781 297.542969 602.917969 280.046875 586 C 258.210938 564.925781 240.550781 550.871094 224.507812 541.804688 Z M 212.511719 520.007812 C 212.988281 513.390625 216.1875 507.796875 221.382812 504.074219 C 217.222656 500.382812 211.082031 498.148438 203.734375 497.792969 C 191.085938 497.128906 174.453125 502.320312 163.980469 515.066406 C 165.015625 516.644531 166.058594 518.191406 167.136719 519.703125 C 181.648438 516.285156 196.636719 517.539062 212.53125 523.535156 C 212.445312 522.371094 212.433594 521.195312 212.511719 520.007812 " fill-opacity="1" fill-rule="nonzero"/><path fill="#0477bf" d="M 594.675781 435.742188 C 591.683594 419.214844 584.378906 407.1875 574.636719 402.722656 C 574.539062 402.691406 574.449219 402.65625 574.363281 402.613281 C 583.191406 429.523438 587.828125 484.457031 537.632812 525.421875 C 546.210938 531.710938 552.832031 540.488281 557.023438 551.089844 C 590.703125 513.0625 600.261719 466.65625 594.675781 435.742188 Z M 485.335938 468.355469 C 485.066406 468.355469 484.792969 468.3125 484.519531 468.3125 C 484.105469 473.035156 483.039062 477.738281 481.246094 482.222656 C 482.550781 484.695312 483.648438 487.253906 484.585938 489.875 C 501.632812 482.125 514.347656 469.683594 520.671875 454.34375 C 521.46875 452.394531 522.132812 450.4375 522.710938 448.464844 C 522.132812 449.207031 521.542969 449.945312 520.925781 450.664062 C 511.332031 461.878906 497.996094 468.355469 485.335938 468.355469 Z M 476.191406 595.90625 C 472.828125 595.917969 469.160156 595.65625 465.164062 595.082031 C 432.34375 590.367188 391.207031 564.773438 335.707031 514.554688 C 335.523438 514.414062 335.402344 514.304688 335.25 514.175781 C 329.535156 509.765625 323.898438 504.964844 318.007812 499.476562 C 317.984375 499.457031 317.964844 499.433594 317.941406 499.414062 C 316.289062 497.878906 314.742188 496.332031 313.195312 494.785156 C 312.976562 494.613281 312.78125 494.40625 312.585938 494.1875 C 311.148438 492.792969 309.722656 491.335938 308.320312 489.855469 C 307.109375 491.203125 305.835938 492.480469 304.441406 493.554688 C 305.792969 502.101562 305.726562 510.429688 304.226562 518.007812 C 323.65625 532.996094 358.265625 559.144531 389.0625 579.546875 C 429.46875 606.347656 460.429688 613.671875 486.46875 602.667969 C 486.535156 602.636719 486.90625 602.460938 487.230469 602.320312 C 488.253906 601.808594 489.289062 601.285156 490.3125 600.71875 C 490.550781 600.566406 490.8125 600.4375 491.074219 600.292969 C 491.105469 600.285156 491.128906 600.273438 491.152344 600.25 C 499.488281 595.796875 504.5625 589.570312 507.328125 583.289062 C 502.472656 589.203125 493.21875 595.90625 476.191406 595.90625 Z M 362.421875 612.085938 C 335.894531 594.515625 309.449219 571.238281 293.632812 557.339844 C 289.355469 553.5625 285.773438 550.414062 283.019531 548.097656 C 278.761719 550.304688 274.082031 551.730469 269.019531 552.320312 C 267.636719 552.492188 266.277344 552.582031 264.925781 552.582031 C 262.914062 552.582031 260.953125 552.332031 259.035156 551.960938 C 267.964844 559.179688 277.523438 567.710938 287.972656 577.804688 C 324.191406 612.8125 352.199219 627.933594 381.636719 628.335938 L 381.667969 628.335938 C 383.640625 628.316406 385.46875 628.21875 387.167969 628.121094 L 387.167969 628.140625 C 387.570312 628.128906 387.9375 628.121094 388.265625 628.121094 C 380.101562 623.875 371.949219 618.441406 363.578125 612.855469 Z M 271.25 449.9375 C 265.351562 442.664062 256.304688 437.285156 244.65625 434.28125 C 214.925781 426.605469 169.921875 436.351562 139.921875 469.378906 C 141.664062 473.777344 143.589844 478.207031 145.691406 482.660156 C 154.300781 473.210938 163.847656 465.144531 174.203125 458.644531 C 174.265625 458.601562 174.34375 458.578125 174.410156 458.535156 C 174.417969 458.535156 174.417969 458.523438 174.429688 458.523438 C 174.472656 458.503906 174.507812 458.480469 174.550781 458.460938 C 174.570312 458.449219 174.582031 458.425781 174.605469 458.417969 C 174.625 458.394531 174.660156 458.394531 174.679688 458.382812 C 205.988281 438.886719 241.511719 436.144531 271.25 449.9375 Z M 176.5625 532.3125 C 197.421875 558.644531 223.101562 580.4375 252.199219 596.582031 C 250.449219 594.570312 248.671875 592.53125 246.878906 590.453125 C 226.007812 566.328125 200.828125 537.167969 176.5625 532.3125 " fill-opacity="1" fill-rule="nonzero"/><g clip-path="url(#cd4a6318d1)"><path fill="#112140" d="M 639.867188 375.171875 C 639.867188 372.21875 639.777344 369.335938 639.667969 366.394531 C 639.714844 366.132812 639.757812 365.875 639.757812 365.589844 C 639.757812 365.253906 639.691406 364.90625 639.625 364.566406 C 633.988281 222.011719 517.832031 110.367188 375.171875 110.367188 C 233.574219 110.367188 117.410156 221.042969 110.726562 362.238281 C 110.472656 365.90625 110.367188 369.683594 110.367188 373.339844 L 110.367188 375.171875 C 110.367188 392.632812 112.019531 409.777344 115.253906 426.105469 C 118.128906 441.03125 122.40625 455.867188 127.957031 470.164062 C 131.125 478.511719 134.9375 487.035156 139.289062 495.527344 C 139.300781 495.546875 139.3125 495.570312 139.324219 495.59375 C 143.851562 504.34375 147.957031 511.453125 152.167969 517.820312 C 154.648438 521.839844 157.382812 525.855469 160.148438 529.558594 C 189.398438 570.226562 229.285156 601.632812 275.476562 620.378906 L 275.484375 620.367188 C 275.53125 620.378906 275.582031 620.414062 275.628906 620.433594 L 275.59375 620.511719 C 307.304688 633.34375 340.8125 639.867188 375.171875 639.867188 C 377.457031 639.867188 379.601562 639.867188 381.558594 639.746094 C 383.648438 639.746094 385.859375 639.722656 387.375 639.527344 C 387.460938 639.527344 387.546875 639.527344 387.632812 639.515625 C 388.746094 639.515625 389.929688 639.496094 391.0625 639.386719 L 391.0625 639.398438 C 400.96875 638.765625 409.851562 637.765625 418.191406 636.359375 C 418.246094 636.347656 418.300781 636.339844 418.367188 636.328125 C 418.398438 636.316406 418.429688 636.316406 418.464844 636.304688 C 443.664062 632.191406 468.050781 624.394531 490.953125 613.140625 C 491.28125 613.007812 491.945312 612.757812 492.25 612.574219 C 492.261719 612.5625 492.261719 612.5625 492.273438 612.5625 L 492.273438 612.550781 L 495.089844 611.214844 C 495.546875 610.984375 496.277344 610.625 497.074219 610.027344 C 519.398438 598.554688 540.0625 583.769531 558.480469 566.046875 L 558.460938 566.035156 C 558.917969 565.710938 559.363281 565.339844 559.472656 565.054688 C 587.132812 538.308594 608.175781 506.585938 622.023438 470.792969 L 622.011719 470.78125 C 622.152344 470.421875 622.273438 470.03125 622.351562 469.628906 C 633.953125 439.734375 639.867188 407.96875 639.867188 375.171875 Z M 499.378906 404.585938 C 498.75 404.09375 498.097656 403.660156 497.433594 403.265625 C 498.617188 402.722656 499.957031 402.320312 501.371094 402.125 C 508.613281 401.035156 515.46875 404.976562 519.757812 412.574219 C 523.296875 422.164062 520.511719 433.597656 512.257812 443.25 C 504.539062 452.265625 493.9375 457.304688 484.324219 456.914062 C 483.726562 452.089844 482.453125 447.367188 480.570312 442.839844 C 482.214844 442.925781 483.867188 442.925781 485.535156 442.707031 C 493.914062 441.609375 500.859375 436.851562 504.105469 429.992188 C 509.332031 419.042969 505.5 409.332031 499.378906 404.585938 Z M 484.519531 468.3125 C 484.792969 468.3125 485.066406 468.355469 485.335938 468.355469 C 497.996094 468.355469 511.332031 461.878906 520.925781 450.664062 C 521.542969 449.945312 522.132812 449.207031 522.710938 448.464844 C 522.132812 450.4375 521.46875 452.394531 520.671875 454.34375 C 514.347656 469.683594 501.632812 482.125 484.585938 489.875 C 483.648438 487.253906 482.550781 484.695312 481.246094 482.222656 C 483.039062 477.738281 484.105469 473.035156 484.519531 468.3125 Z M 487.328125 501.15625 C 508.035156 492.292969 523.527344 477.347656 531.222656 458.699219 C 537.972656 442.335938 538.046875 424.648438 531.460938 410.300781 C 531.039062 409.332031 530.492188 408.351562 529.925781 407.371094 C 529.925781 407.371094 529.925781 407.371094 529.925781 407.359375 C 529.894531 407.304688 529.882812 407.25 529.851562 407.195312 C 522.011719 393.078125 509.230469 389.464844 499.738281 390.835938 C 490.019531 392.238281 482.507812 398.640625 480.601562 407.121094 C 480.070312 409.515625 481.113281 411.976562 483.203125 413.238281 C 485.304688 414.5 487.960938 414.339844 489.832031 412.75 C 490.082031 412.5625 491.160156 412.652344 492.378906 413.597656 C 494.710938 415.40625 496.472656 419.488281 493.796875 425.09375 C 492.238281 428.390625 488.503906 430.796875 484.0625 431.386719 C 478.542969 432.148438 473.277344 429.992188 469.445312 425.453125 C 468.617188 424.539062 467.917969 423.339844 467.308594 422.359375 C 462.859375 414.402344 461.910156 404.453125 464.785156 395.753906 C 467.996094 386.035156 475.800781 378.152344 487.40625 372.9375 C 514.152344 360.800781 546.757812 371.851562 560.070312 397.640625 C 569.433594 415.839844 582.964844 476.617188 526.953125 519.292969 C 513.828125 513.621094 499.042969 513.304688 486.761719 517.898438 C 487.863281 512.464844 488.070312 506.835938 487.328125 501.15625 Z M 469.726562 529.621094 C 468.933594 530.535156 468.214844 531.570312 467.441406 532.722656 C 460.417969 541.445312 450.035156 546.636719 439.636719 546.636719 L 438.703125 546.636719 C 422.035156 545.363281 406.335938 540.933594 392.109375 534.96875 C 394.089844 535.121094 396.070312 535.207031 398.050781 535.207031 C 407.492188 535.207031 416.875 533.464844 425.878906 529.480469 C 437.015625 524.515625 445.710938 517.191406 451.777344 507.6875 C 464.796875 486.96875 461.386719 459.722656 443.992188 445.679688 C 435.25 438.648438 424.453125 436.035156 414.535156 438.265625 C 410.277344 427.773438 400.25 422.578125 391.433594 422.21875 C 380.886719 421.511719 371.957031 428.078125 369.605469 438.234375 C 368.964844 441.054688 370.359375 443.796875 373.070312 444.777344 C 373.277344 445.027344 373.699219 446.398438 373.179688 448.554688 C 372.65625 450.753906 371.382812 452.636719 369.964844 453.257812 C 366.820312 454.683594 363.652344 454.519531 361.019531 452.820312 C 357.5 450.535156 355.507812 445.820312 355.554688 439.921875 C 355.640625 430.070312 360.355469 421.4375 368.855469 415.558594 C 382.953125 405.707031 406.273438 404.910156 417.136719 419.542969 C 418.59375 421.480469 421.109375 422.339844 423.394531 421.578125 C 436.1875 417.660156 450.535156 422.132812 460.929688 433.289062 C 468.507812 441.269531 473.003906 451.796875 473.296875 462.28125 C 473.613281 468.355469 472.371094 474.503906 469.726562 480.089844 C 468.933594 481.808594 469.019531 483.800781 469.976562 485.445312 C 472.460938 489.636719 474.277344 494.167969 475.355469 498.835938 C 477.804688 509.710938 475.800781 520.640625 469.726562 529.621094 Z M 482.625 574.484375 C 491.050781 574.753906 498.214844 570.585938 501.382812 563.335938 C 501.796875 562.410156 502.089844 561.476562 502.339844 560.527344 C 503.039062 564.230469 502.722656 568.628906 500.773438 572.601562 C 496.039062 582.320312 483.933594 586.285156 466.796875 583.78125 C 444.058594 580.515625 418.246094 565.773438 393.90625 547.976562 C 406.71875 552.808594 420.585938 556.359375 435.207031 557.75 C 435.292969 557.773438 435.359375 557.816406 435.445312 557.828125 C 436.21875 557.980469 437.101562 558.023438 437.917969 558.035156 C 437.929688 558.035156 437.929688 558.046875 437.949219 558.046875 C 438.070312 558.046875 438.199219 558.046875 438.332031 558.046875 C 438.34375 558.046875 438.363281 558.054688 438.375 558.054688 L 439.410156 558.054688 C 442.371094 558.261719 445.332031 558.371094 448.3125 558.371094 C 453.257812 558.371094 458.273438 558.078125 463.421875 557.480469 C 465.992188 567.136719 473.382812 573.972656 482.625 574.484375 Z M 315.132812 447.726562 C 316.625 449.5 318.136719 451.308594 319.695312 453.179688 C 334.671875 471.175781 351.65625 491.574219 376.171875 501.828125 C 394.285156 509.363281 412.195312 504.148438 421.882812 495.636719 C 429.621094 488.855469 432.855469 479.6875 430.535156 471.121094 C 429.871094 468.648438 427.652344 466.941406 425.09375 466.894531 C 422.523438 467.148438 420.28125 468.539062 419.5625 470.980469 C 418.34375 475.082031 414.730469 476.769531 411.910156 476.398438 C 407.71875 476.0625 404.8125 472.460938 404.105469 466.753906 C 403.234375 459.875 406.621094 453.867188 413.074219 450.730469 C 418.867188 448.019531 428.183594 447.605469 436.839844 454.550781 C 449.792969 465.035156 452.101562 485.707031 442.121094 501.601562 C 437.308594 509.144531 430.277344 515.023438 421.238281 519.0625 C 389.496094 533.082031 351.15625 513.890625 325.835938 491.171875 C 325.8125 491.160156 325.800781 491.140625 325.78125 491.128906 C 325.78125 491.117188 325.769531 491.117188 325.769531 491.105469 C 325.746094 491.097656 325.726562 491.074219 325.703125 491.050781 C 325.703125 491.050781 325.691406 491.050781 325.691406 491.050781 C 324.070312 489.539062 322.546875 488.003906 320.828125 486.285156 C 320.828125 486.285156 320.816406 486.273438 320.804688 486.261719 C 320.78125 486.242188 320.738281 486.207031 320.707031 486.175781 C 318.585938 484.128906 316.515625 481.941406 314.449219 479.699219 C 318.148438 470.390625 318.324219 459.375 315.132812 447.726562 Z M 558.992188 364.339844 C 549.652344 348.074219 537.722656 337.601562 526.824219 330.929688 C 541.867188 331.179688 561.070312 336.152344 570.554688 349.328125 C 565.242188 353.265625 561.257812 358.492188 558.992188 364.339844 Z M 507.546875 322.003906 C 488.539062 315.675781 468.039062 315.917969 454.835938 322.730469 C 448.652344 325.910156 444.613281 330.339844 443.152344 335.511719 C 442.652344 337.308594 443.054688 339.246094 444.230469 340.671875 C 445.144531 341.792969 446.417969 342.5 447.824219 342.71875 C 448.707031 343.839844 450.132812 347.28125 449.609375 351.425781 C 449.109375 355.410156 446.984375 358.265625 443.328125 359.929688 C 437.230469 362.707031 432.527344 360.484375 429.664062 358.132812 C 423.886719 353.417969 419.390625 342.71875 422.394531 329.40625 C 426.726562 309.941406 440.738281 299.816406 451.730469 294.753906 C 470.554688 286.089844 495.136719 285.597656 510.210938 293.613281 C 511.507812 294.320312 513.042969 294.460938 514.480469 294.058594 C 537.949219 287.199219 565.480469 291.609375 588.058594 305.804688 C 604.507812 316.167969 616.667969 330.796875 623.394531 347.867188 C 610.636719 340.726562 595.503906 340.117188 586.347656 342.230469 C 584.324219 342.675781 582.429688 343.242188 580.632812 343.894531 C 564.839844 320.445312 526.355469 315.632812 507.546875 322.003906 Z M 375.171875 121.773438 C 497.519531 121.773438 599.421875 207.609375 623.15625 323.613281 C 615.601562 312.847656 605.835938 303.527344 594.132812 296.148438 C 569.550781 280.679688 539.582031 275.628906 513.476562 282.496094 C 495.242188 273.898438 468.300781 274.570312 446.964844 284.390625 C 433.628906 290.53125 416.613281 302.898438 411.246094 326.910156 C 407.6875 342.792969 412.074219 358.515625 422.449219 366.984375 C 429.917969 373.070312 439.234375 374.289062 448.03125 370.324219 C 459.917969 364.957031 462.769531 352.84375 460.332031 343.242188 C 459.503906 339.984375 458.15625 337.265625 456.46875 335.261719 C 457.414062 334.414062 458.632812 333.605469 460.058594 332.867188 C 469.074219 328.21875 486.675781 326.597656 505.738281 333.433594 C 517.027344 337.417969 534.683594 346.734375 547.617188 367.667969 C 528.839844 355.519531 504.203125 352.765625 482.703125 362.542969 C 464.292969 370.828125 456.902344 383.226562 453.953125 392.175781 C 451.730469 398.878906 451.265625 406.140625 452.386719 413.171875 C 443.285156 408.972656 433.34375 407.652344 423.796875 409.710938 C 408.980469 393.578125 383.074219 393.730469 365.273438 404.324219 C 357.566406 400.175781 332.410156 385.140625 285.730469 344.078125 C 285.554688 343.925781 285.382812 343.816406 285.207031 343.699219 C 272.613281 332.628906 258.882812 320 244.394531 306.128906 C 232.878906 295.046875 184.226562 297.902344 174.667969 305.707031 C 165.527344 313.085938 156.566406 321.089844 147.902344 328.839844 C 139.34375 336.480469 131.136719 343.808594 123.015625 350.359375 C 135.457031 221.207031 243.871094 121.773438 375.171875 121.773438 Z M 272.722656 347.878906 C 271.292969 349.609375 270.488281 351.417969 270.054688 352.960938 C 269.707031 354.183594 269.574219 355.476562 269.53125 356.804688 C 263.292969 352.765625 256.542969 349.992188 250.023438 350.316406 C 245.808594 350.554688 242.066406 352.113281 238.941406 354.824219 C 230.886719 343.609375 222.742188 338.136719 214.164062 338.136719 L 213.992188 338.136719 C 206.632812 338.199219 199.761719 342.21875 193.1875 350.371094 C 191.71875 348.878906 189.933594 347.714844 187.875 346.976562 C 178.925781 343.742188 166.777344 348.335938 153.832031 359.59375 C 151.601562 357.242188 148.683594 355.671875 145.179688 355.0625 C 141.835938 354.464844 138.09375 354.847656 134.324219 355.835938 C 141.28125 350.046875 148.269531 343.808594 155.5 337.339844 C 164.066406 329.6875 172.917969 321.785156 181.855469 314.554688 C 188.058594 309.496094 230.078125 308.199219 236.492188 314.371094 C 249.25 326.574219 261.378906 337.765625 272.722656 347.878906 Z M 121.785156 375.53125 C 126.097656 370.96875 137.089844 365.265625 143.210938 366.296875 C 144.167969 366.460938 144.984375 366.789062 145.648438 367.507812 C 141.171875 372.199219 136.675781 377.640625 132.214844 383.804688 C 130.363281 386.359375 130.941406 389.929688 133.5 391.769531 C 134.511719 392.511719 135.675781 392.847656 136.839844 392.847656 C 138.605469 392.847656 140.347656 392.03125 141.46875 390.488281 C 146.519531 383.496094 151.601562 377.488281 156.597656 372.601562 C 169.203125 360.058594 179.632812 356.109375 183.957031 357.6875 C 184.5 357.894531 186.15625 358.492188 186.480469 362.3125 C 186.699219 364.773438 188.472656 366.808594 190.878906 367.386719 C 193.328125 367.972656 195.777344 366.898438 197.050781 364.773438 C 203.050781 354.855469 208.9375 349.585938 214.089844 349.542969 L 214.152344 349.542969 C 219.53125 349.542969 225.921875 355.195312 232.648438 365.917969 C 234.933594 369.5 237.125 373.449219 239.179688 377.664062 C 240.5625 380.503906 244.015625 381.667969 246.8125 380.296875 C 249.652344 378.914062 250.816406 375.507812 249.4375 372.675781 C 248.085938 369.910156 246.671875 367.277344 245.210938 364.730469 C 246.726562 362.824219 248.464844 361.835938 250.675781 361.703125 C 258.023438 361.234375 269.617188 369.226562 281.070312 382.429688 C 281.070312 382.441406 281.082031 382.453125 281.09375 382.453125 C 281.101562 382.476562 281.113281 382.484375 281.125 382.507812 C 282.082031 383.574219 283.03125 384.726562 283.988281 385.894531 L 284.0625 385.980469 C 285.175781 387.339844 286.785156 388.039062 288.40625 388.039062 C 289.691406 388.039062 290.988281 387.601562 292.054688 386.710938 C 294.480469 384.71875 294.808594 381.082031 292.804688 378.644531 C 291.738281 377.359375 290.683594 376.074219 289.878906 375.191406 C 282.148438 365.285156 280.277344 358.699219 281.027344 356.074219 C 281.070312 355.914062 281.148438 355.664062 281.332031 355.378906 C 320.597656 389.660156 344.382812 405.410156 355.574219 411.964844 C 348.269531 419.5 344.230469 429.109375 344.144531 439.8125 C 344.058594 449.695312 347.953125 457.9375 354.792969 462.390625 C 360.703125 466.222656 367.953125 466.691406 374.605469 463.683594 C 381.605469 460.613281 385.042969 452.460938 384.824219 445.972656 C 384.71875 442.6875 383.714844 439.824219 382.015625 437.667969 C 384.542969 433.726562 389.234375 433.464844 390.976562 433.617188 C 396.09375 433.824219 401.972656 436.949219 404.191406 442.738281 C 395.808594 448.507812 391.5 457.894531 392.785156 468.160156 C 394.449219 481.648438 403.605469 487.15625 410.953125 487.765625 C 411.800781 487.839844 412.628906 487.875 413.445312 487.832031 C 406.21875 493.511719 393.558594 496.703125 380.558594 491.304688 C 358.632812 482.136719 342.609375 462.867188 328.46875 445.875 C 318.007812 433.3125 308.9375 422.449219 298.78125 416.90625 C 274.875 389.507812 229.863281 377.675781 186.492188 386.152344 C 188.355469 383.335938 189.496094 381.363281 189.59375 381.179688 C 191.152344 378.4375 190.195312 374.964844 187.449219 373.394531 C 184.707031 371.851562 181.222656 372.796875 179.675781 375.539062 C 179.621094 375.628906 174.691406 384.238281 168.234375 391 C 152.515625 396.3125 137.960938 404.179688 124.824219 414.445312 C 122.839844 401.820312 121.808594 388.789062 121.785156 375.53125 Z M 135.457031 457.394531 C 132.039062 447.496094 129.285156 437.40625 127.171875 427.25 C 140.847656 415.613281 156.28125 406.871094 173.167969 401.351562 C 216.929688 387.058594 267.617188 397.410156 291.042969 425.386719 C 291.054688 425.410156 291.074219 425.421875 291.097656 425.441406 C 291.109375 425.453125 291.117188 425.476562 291.128906 425.484375 C 293.144531 427.78125 294.992188 430.394531 296.648438 433.246094 C 310.648438 457.402344 305.53125 472.621094 302.691406 478.054688 C 302.648438 478.140625 302.636719 478.238281 302.59375 478.328125 C 300.828125 481.613281 298.304688 484.28125 295.496094 485.804688 C 293.425781 486.90625 290.191406 487.949219 286.546875 486.566406 C 279.65625 483.855469 278.992188 477.519531 279.6875 474.199219 C 279.796875 473.734375 280.917969 469.878906 283.683594 469.628906 C 283.75 469.628906 283.792969 469.617188 283.855469 469.605469 C 283.890625 469.617188 283.921875 469.617188 283.957031 469.617188 C 283.976562 469.617188 283.988281 469.628906 284.011719 469.628906 C 284.207031 469.628906 284.390625 469.597656 284.585938 469.574219 C 284.773438 469.550781 284.96875 469.550781 285.152344 469.519531 C 288.246094 468.886719 290.226562 465.863281 289.605469 462.78125 C 285.664062 443.535156 270.316406 429.121094 247.507812 423.230469 C 216.625 415.210938 169.652344 422.960938 135.457031 457.394531 Z M 253.726562 470.566406 C 243.644531 461.605469 231.070312 455.933594 217.484375 453.777344 C 236.742188 450.511719 255.792969 453.734375 272.613281 463.433594 C 270.675781 465.65625 269.226562 468.484375 268.519531 471.871094 C 266.667969 480.722656 270.21875 492.414062 282.464844 497.214844 C 284.933594 498.148438 287.503906 498.609375 290.105469 498.609375 C 291.261719 498.609375 292.414062 498.488281 293.566406 498.304688 C 294.417969 505.660156 294.015625 512.683594 292.328125 518.824219 C 290.074219 526.660156 286.035156 532.605469 280.351562 536.449219 C 276.714844 538.90625 272.46875 540.433594 267.636719 540.988281 C 259.972656 542 252.953125 538.679688 249.554688 532.472656 C 248.226562 530.1875 246.933594 526.550781 248.367188 522.164062 C 250.144531 516.679688 254.183594 516.394531 255.378906 516.570312 C 257.175781 516.667969 259.441406 517.636719 259.929688 520.054688 C 260.464844 522.6875 262.761719 524.59375 265.449219 524.625 C 268.027344 524.101562 270.488281 522.816406 271.089844 520.207031 C 275.179688 502.429688 268.691406 483.878906 253.726562 470.566406 Z M 139.921875 469.378906 C 169.921875 436.351562 214.925781 426.605469 244.65625 434.28125 C 256.304688 437.285156 265.351562 442.664062 271.25 449.9375 C 241.511719 436.144531 205.988281 438.886719 174.679688 458.382812 C 174.660156 458.394531 174.625 458.394531 174.605469 458.417969 C 174.582031 458.425781 174.570312 458.449219 174.550781 458.460938 C 174.507812 458.480469 174.472656 458.503906 174.429688 458.523438 C 174.417969 458.523438 174.417969 458.535156 174.410156 458.535156 C 174.34375 458.578125 174.265625 458.601562 174.203125 458.644531 C 163.847656 465.144531 154.300781 473.210938 145.691406 482.660156 C 143.589844 478.207031 141.664062 473.777344 139.921875 469.378906 Z M 157.621094 505.042969 C 155.519531 501.546875 153.398438 497.78125 151.199219 493.644531 C 159.757812 483.640625 169.390625 475.203125 179.90625 468.550781 C 208.632812 458.460938 232.933594 467.34375 246.136719 479.089844 C 254.78125 486.773438 259.808594 496.222656 260.746094 506.097656 C 259.265625 505.585938 257.675781 505.269531 256.03125 505.171875 C 247.78125 504.683594 240.335938 509.972656 237.515625 518.628906 C 236.054688 523.101562 235.992188 527.769531 237.179688 532.160156 C 234.433594 532.824219 231.929688 532.671875 229.839844 531.722656 C 229.753906 531.667969 229.667969 531.625 229.578125 531.582031 C 225.910156 529.699219 223.570312 525.320312 223.898438 520.824219 C 224.09375 518.222656 225.367188 513.523438 231.875 511.464844 C 233.5 510.953125 234.816406 509.742188 235.457031 508.15625 C 236.089844 506.578125 235.992188 504.789062 235.175781 503.300781 C 229.699219 493.261719 218.453125 487.101562 204.300781 486.382812 C 189.824219 485.664062 170.707031 491.257812 157.621094 505.042969 Z M 163.980469 515.066406 C 174.453125 502.320312 191.085938 497.128906 203.734375 497.792969 C 211.082031 498.148438 217.222656 500.382812 221.382812 504.074219 C 216.1875 507.796875 212.988281 513.390625 212.511719 520.007812 C 212.433594 521.195312 212.445312 522.371094 212.53125 523.535156 C 196.636719 517.539062 181.648438 516.285156 167.136719 519.703125 C 166.058594 518.191406 165.015625 516.644531 163.980469 515.066406 Z M 176.5625 532.3125 C 200.828125 537.167969 226.007812 566.328125 246.878906 590.453125 C 248.671875 592.53125 250.449219 594.570312 252.199219 596.582031 C 223.101562 580.4375 197.421875 558.644531 176.5625 532.3125 Z M 280.796875 610.277344 C 273.363281 603.605469 264.6875 593.601562 255.5 582.976562 C 240.367188 565.480469 223.046875 545.484375 204.585938 532.84375 C 211.007812 534.921875 217.636719 537.90625 224.507812 541.804688 C 240.550781 550.871094 258.210938 564.925781 280.046875 586 C 297.542969 602.917969 313.347656 615.425781 328.457031 624.125 C 312.203125 621.097656 296.277344 616.480469 280.796875 610.277344 Z M 387.167969 628.140625 L 387.167969 628.121094 C 385.46875 628.21875 383.640625 628.316406 381.667969 628.335938 L 381.636719 628.335938 C 352.199219 627.933594 324.191406 612.8125 287.972656 577.804688 C 277.523438 567.710938 267.964844 559.179688 259.035156 551.960938 C 260.953125 552.332031 262.914062 552.582031 264.925781 552.582031 C 266.277344 552.582031 267.636719 552.492188 269.019531 552.320312 C 274.082031 551.730469 278.761719 550.304688 283.019531 548.097656 C 285.773438 550.414062 289.355469 553.5625 293.632812 557.339844 C 309.449219 571.238281 335.894531 594.515625 362.421875 612.085938 L 363.578125 612.855469 C 371.949219 618.441406 380.101562 623.875 388.265625 628.121094 C 387.9375 628.121094 387.570312 628.128906 387.167969 628.140625 Z M 416.851562 625.007812 C 402.070312 624.820312 387.15625 614.871094 369.902344 603.363281 L 368.746094 602.582031 C 342.839844 585.433594 317.769531 563.367188 301.175781 548.769531 C 297.847656 545.832031 294.917969 543.261719 292.445312 541.140625 C 295.667969 537.863281 298.359375 533.953125 300.457031 529.503906 C 320.46875 544.882812 353.300781 569.550781 382.746094 589.058594 C 407.042969 605.160156 428.414062 614.6875 447.726562 617.84375 C 437.625 620.871094 427.316406 623.285156 416.851562 625.007812 Z M 491.152344 600.25 C 491.128906 600.273438 491.105469 600.285156 491.074219 600.292969 C 491.03125 600.316406 490.988281 600.347656 490.945312 600.371094 C 490.738281 600.492188 490.519531 600.597656 490.3125 600.71875 C 489.289062 601.285156 488.253906 601.808594 487.230469 602.320312 C 486.90625 602.460938 486.535156 602.636719 486.46875 602.667969 C 460.429688 613.671875 429.46875 606.347656 389.0625 579.546875 C 358.265625 559.144531 323.65625 532.996094 304.226562 518.007812 C 305.726562 510.429688 305.792969 502.101562 304.441406 493.554688 C 305.835938 492.480469 307.109375 491.203125 308.320312 489.855469 C 309.722656 491.335938 311.148438 492.792969 312.585938 494.1875 C 312.78125 494.40625 312.976562 494.613281 313.195312 494.785156 C 314.742188 496.332031 316.289062 497.878906 317.941406 499.414062 C 317.964844 499.433594 317.984375 499.457031 318.007812 499.476562 C 323.898438 504.964844 329.535156 509.765625 335.25 514.175781 C 335.402344 514.304688 335.523438 514.414062 335.707031 514.554688 C 391.207031 564.773438 432.34375 590.367188 465.164062 595.082031 C 469.160156 595.65625 472.828125 595.917969 476.191406 595.90625 C 493.21875 595.90625 502.472656 589.203125 507.328125 583.289062 C 504.5625 589.570312 499.488281 595.796875 491.152344 600.25 Z M 519.496094 583.234375 C 521.238281 577.640625 521.742188 572.152344 521.316406 567.453125 C 520.292969 555.976562 514.195312 547.34375 505.226562 544.339844 C 505.160156 544.316406 505.09375 544.285156 505.03125 544.265625 C 505.03125 544.265625 505.019531 544.265625 505.019531 544.265625 C 501.644531 543.035156 497.703125 542.675781 493.589844 543.273438 C 491.445312 543.589844 489.671875 545.070312 488.984375 547.117188 C 488.308594 549.171875 488.84375 551.4375 490.367188 552.960938 C 491.859375 554.464844 491.738281 556.945312 490.945312 558.742188 C 490.335938 560.113281 488.601562 563.117188 483.191406 563.085938 C 478.109375 562.8125 474.191406 557.652344 473.851562 550.6875 C 473.582031 546.875 474.59375 542.882812 476.628906 539.515625 C 477.511719 538.460938 478.261719 537.449219 478.828125 536.480469 L 480.015625 535.207031 C 490.464844 524.972656 509.808594 523.15625 524.996094 530.960938 C 525.160156 531.046875 525.320312 531.089844 525.484375 531.15625 C 533.34375 535.261719 543.316406 543.554688 548.148438 560.070312 C 539.125 568.527344 529.566406 576.257812 519.496094 583.234375 Z M 557.023438 551.089844 C 552.832031 540.488281 546.210938 531.710938 537.632812 525.421875 C 587.828125 484.457031 583.191406 429.523438 574.363281 402.613281 C 574.449219 402.65625 574.539062 402.691406 574.636719 402.722656 C 584.378906 407.1875 591.683594 419.214844 594.675781 435.742188 C 600.261719 466.65625 590.703125 513.0625 557.023438 551.089844 Z M 611.332031 466.570312 C 611.289062 466.710938 611.269531 466.863281 611.234375 467.015625 C 609.070312 472.613281 606.695312 478.097656 604.160156 483.476562 C 608.121094 465.253906 608.480469 447.988281 605.890625 433.714844 C 603.34375 419.574219 598.085938 408.210938 590.683594 400.503906 C 593.523438 398.933594 596.039062 396.671875 597.890625 393.808594 C 600.492188 389.824219 601.339844 385.445312 600.480469 381.308594 C 601.589844 381.734375 602.546875 382.332031 603.15625 382.746094 C 612.476562 389.222656 626.203125 415.078125 611.332031 466.570312 Z M 609.65625 373.375 C 602.503906 368.429688 594.425781 368.050781 588.546875 372.414062 C 587.242188 373.382812 586.402344 374.855469 586.261719 376.476562 C 586.121094 378.085938 586.664062 379.699219 587.765625 380.886719 C 589.691406 382.941406 589.886719 385.207031 588.332031 387.582031 C 586.578125 390.300781 582.769531 392.46875 579.078125 391.226562 C 572.71875 389.039062 568.789062 383.878906 568.300781 377.042969 C 567.703125 368.660156 572.621094 360.507812 580.972656 356.21875 C 583.289062 354.976562 585.871094 354.027344 588.875 353.34375 C 599.433594 350.90625 618.832031 353.800781 628.28125 367.234375 C 628.378906 369.890625 628.457031 372.492188 628.457031 375.171875 C 628.457031 384.574219 627.890625 393.871094 626.878906 403.070312 C 623.65625 388.855469 617.351562 378.707031 609.65625 373.375 Z M 303.679688 402.386719 C 304.726562 403.191406 305.945312 403.582031 307.175781 403.582031 C 308.875 403.582031 310.5625 402.820312 311.683594 401.363281 C 313.609375 398.878906 313.152344 395.289062 310.660156 393.359375 C 309.625 392.566406 309.015625 391.96875 308.894531 391.871094 C 306.695312 389.691406 303.113281 389.691406 300.894531 391.890625 C 298.664062 394.113281 298.652344 397.726562 300.851562 399.957031 C 300.851562 399.957031 301.851562 400.96875 303.679688 402.386719 " fill-opacity="1" fill-rule="nonzero"/></g><g fill="#000000" fill-opacity="1"><g transform="translate(157.345068, 183.600269)"><g><path d="M -11.234375 -43.578125 C -9.191406 -45.609375 -7.222656 -47.085938 -5.328125 -48.015625 C -3.441406 -48.953125 -1.476562 -49.5625 0.5625 -49.84375 C 1.09375 -49.914062 1.675781 -49.859375 2.3125 -49.671875 C 2.957031 -49.492188 3.53125 -49.148438 4.03125 -48.640625 C 4.851562 -47.804688 5.257812 -46.832031 5.25 -45.71875 C 5.238281 -44.601562 4.816406 -43.632812 3.984375 -42.8125 C 3.578125 -42.40625 3.164062 -42.125 2.75 -41.96875 C 2.34375 -41.820312 1.972656 -41.707031 1.640625 -41.625 C 0.203125 -41.414062 -1.125 -41.035156 -2.34375 -40.484375 C -3.570312 -39.941406 -4.726562 -39.132812 -5.8125 -38.0625 C -6.945312 -36.9375 -7.773438 -35.671875 -8.296875 -34.265625 C -8.828125 -32.867188 -9.054688 -31.4375 -8.984375 -29.96875 C -8.921875 -28.5 -8.570312 -27.066406 -7.9375 -25.671875 C -7.3125 -24.273438 -6.421875 -22.992188 -5.265625 -21.828125 L -5.1875 -21.75 C -4.039062 -20.59375 -2.757812 -19.6875 -1.34375 -19.03125 C 0.0625 -18.382812 1.488281 -18.015625 2.9375 -17.921875 C 4.394531 -17.835938 5.832031 -18.050781 7.25 -18.5625 C 8.664062 -19.082031 9.953125 -19.914062 11.109375 -21.0625 C 12.378906 -22.320312 13.289062 -23.585938 13.84375 -24.859375 C 14.394531 -26.128906 14.738281 -27.515625 14.875 -29.015625 C 14.957031 -29.984375 15.332031 -30.800781 16 -31.46875 C 16.75 -32.207031 17.664062 -32.582031 18.75 -32.59375 C 19.84375 -32.601562 20.765625 -32.234375 21.515625 -31.484375 C 21.972656 -31.015625 22.269531 -30.515625 22.40625 -29.984375 C 22.550781 -29.460938 22.617188 -28.921875 22.609375 -28.359375 C 22.535156 -26.078125 22.023438 -23.882812 21.078125 -21.78125 C 20.140625 -19.6875 18.578125 -17.550781 16.390625 -15.375 C 14.410156 -13.40625 12.207031 -11.929688 9.78125 -10.953125 C 7.351562 -9.984375 4.898438 -9.507812 2.421875 -9.53125 C -0.0546875 -9.550781 -2.488281 -10.0625 -4.875 -11.0625 C -7.257812 -12.070312 -9.410156 -13.539062 -11.328125 -15.46875 L -11.40625 -15.546875 C -13.332031 -17.484375 -14.785156 -19.640625 -15.765625 -22.015625 C -16.753906 -24.398438 -17.265625 -26.84375 -17.296875 -29.34375 C -17.328125 -31.851562 -16.84375 -34.335938 -15.84375 -36.796875 C -14.84375 -39.253906 -13.304688 -41.515625 -11.234375 -43.578125 Z M -11.234375 -43.578125 "/></g></g></g><g fill="#000000" fill-opacity="1"><g transform="translate(191.782864, 150.194357)"><g><path d="M 1.5 -5.8125 L -16.03125 -30.65625 C -16.695312 -31.601562 -16.929688 -32.644531 -16.734375 -33.78125 C -16.535156 -34.914062 -15.960938 -35.820312 -15.015625 -36.5 C -14.066406 -37.164062 -13.019531 -37.398438 -11.875 -37.203125 C -10.738281 -37.015625 -9.835938 -36.445312 -9.171875 -35.5 L -2.703125 -26.328125 L 9.953125 -35.25 L 3.484375 -44.421875 C 2.816406 -45.367188 2.578125 -46.410156 2.765625 -47.546875 C 2.960938 -48.679688 3.539062 -49.585938 4.5 -50.265625 C 5.445312 -50.941406 6.488281 -51.179688 7.625 -50.984375 C 8.769531 -50.785156 9.675781 -50.210938 10.34375 -49.265625 L 27.875 -24.421875 C 28.550781 -23.460938 28.789062 -22.414062 28.59375 -21.28125 C 28.394531 -20.144531 27.820312 -19.238281 26.875 -18.5625 C 25.914062 -17.882812 24.867188 -17.644531 23.734375 -17.84375 C 22.597656 -18.039062 21.691406 -18.617188 21.015625 -19.578125 L 14.421875 -28.921875 L 1.765625 -20 L 8.359375 -10.65625 C 9.035156 -9.695312 9.273438 -8.644531 9.078125 -7.5 C 8.878906 -6.363281 8.304688 -5.460938 7.359375 -4.796875 C 6.410156 -4.117188 5.363281 -3.878906 4.21875 -4.078125 C 3.082031 -4.273438 2.175781 -4.851562 1.5 -5.8125 Z M 1.5 -5.8125 "/></g></g></g><g fill="#000000" fill-opacity="1"><g transform="translate(232.515397, 122.465552)"><g><path d="M 2.296875 -5.78125 L -10.71875 -32.5625 C -11.21875 -33.601562 -11.28125 -34.671875 -10.90625 -35.765625 C -10.53125 -36.859375 -9.816406 -37.65625 -8.765625 -38.15625 L 10.25 -47.390625 C 11.195312 -47.859375 12.15625 -47.925781 13.125 -47.59375 C 14.09375 -47.257812 14.804688 -46.617188 15.265625 -45.671875 C 15.734375 -44.710938 15.796875 -43.753906 15.453125 -42.796875 C 15.109375 -41.847656 14.460938 -41.140625 13.515625 -40.671875 L -1.78125 -33.25 L 1.59375 -26.28125 L 14.671875 -32.640625 C 15.628906 -33.097656 16.59375 -33.160156 17.5625 -32.828125 C 18.539062 -32.492188 19.257812 -31.851562 19.71875 -30.90625 C 20.175781 -29.957031 20.234375 -29.003906 19.890625 -28.046875 C 19.546875 -27.085938 18.894531 -26.378906 17.9375 -25.921875 L 4.859375 -19.5625 L 8.359375 -12.359375 L 23.90625 -19.90625 C 24.851562 -20.363281 25.8125 -20.425781 26.78125 -20.09375 C 27.757812 -19.757812 28.476562 -19.117188 28.9375 -18.171875 C 29.40625 -17.222656 29.460938 -16.269531 29.109375 -15.3125 C 28.765625 -14.351562 28.117188 -13.644531 27.171875 -13.1875 L 7.90625 -3.828125 C 6.851562 -3.328125 5.78125 -3.265625 4.6875 -3.640625 C 3.59375 -4.015625 2.796875 -4.726562 2.296875 -5.78125 Z M 2.296875 -5.78125 "/></g></g></g><g fill="#000000" fill-opacity="1"><g transform="translate(272.446585, 103.352994)"><g><path d="M 11.515625 -43.734375 C 14.347656 -44.546875 17.09375 -44.796875 19.75 -44.484375 C 22.414062 -44.179688 24.859375 -43.429688 27.078125 -42.234375 C 29.296875 -41.046875 31.210938 -39.445312 32.828125 -37.4375 C 34.453125 -35.4375 35.644531 -33.128906 36.40625 -30.515625 L 36.4375 -30.40625 C 37.195312 -27.78125 37.414062 -25.179688 37.09375 -22.609375 C 36.78125 -20.035156 36.007812 -17.632812 34.78125 -15.40625 C 33.550781 -13.1875 31.882812 -11.234375 29.78125 -9.546875 C 27.6875 -7.867188 25.222656 -6.617188 22.390625 -5.796875 C 19.566406 -4.984375 16.820312 -4.726562 14.15625 -5.03125 C 11.488281 -5.34375 9.046875 -6.09375 6.828125 -7.28125 C 4.609375 -8.476562 2.691406 -10.078125 1.078125 -12.078125 C -0.535156 -14.085938 -1.722656 -16.398438 -2.484375 -19.015625 L -2.515625 -19.125 C -3.273438 -21.75 -3.5 -24.347656 -3.1875 -26.921875 C -2.875 -29.492188 -2.101562 -31.890625 -0.875 -34.109375 C 0.351562 -36.335938 2.019531 -38.296875 4.125 -39.984375 C 6.238281 -41.671875 8.703125 -42.921875 11.515625 -43.734375 Z M 20.328125 -13.265625 C 21.972656 -13.734375 23.378906 -14.457031 24.546875 -15.4375 C 25.722656 -16.414062 26.640625 -17.570312 27.296875 -18.90625 C 27.960938 -20.238281 28.363281 -21.671875 28.5 -23.203125 C 28.644531 -24.734375 28.492188 -26.285156 28.046875 -27.859375 L 28.015625 -27.96875 C 27.554688 -29.539062 26.851562 -30.945312 25.90625 -32.1875 C 24.96875 -33.425781 23.847656 -34.421875 22.546875 -35.171875 C 21.242188 -35.929688 19.828125 -36.421875 18.296875 -36.640625 C 16.773438 -36.867188 15.195312 -36.75 13.5625 -36.28125 C 11.957031 -35.8125 10.5625 -35.082031 9.375 -34.09375 C 8.1875 -33.101562 7.265625 -31.945312 6.609375 -30.625 C 5.953125 -29.3125 5.550781 -27.882812 5.40625 -26.34375 C 5.269531 -24.800781 5.429688 -23.25 5.890625 -21.6875 L 5.921875 -21.578125 C 6.367188 -20.003906 7.0625 -18.597656 8 -17.359375 C 8.945312 -16.117188 10.066406 -15.117188 11.359375 -14.359375 C 12.660156 -13.597656 14.082031 -13.109375 15.625 -12.890625 C 17.164062 -12.671875 18.734375 -12.796875 20.328125 -13.265625 Z M 20.328125 -13.265625 "/></g></g></g><g fill="#000000" fill-opacity="1"><g transform="translate(324.40347, 89.187292)"><g><path d="M 4.1875 -4.25 L 1.140625 -34.46875 C 1.023438 -35.613281 1.332031 -36.632812 2.0625 -37.53125 C 2.789062 -38.4375 3.734375 -38.945312 4.890625 -39.0625 L 5.765625 -39.15625 C 6.765625 -39.257812 7.613281 -39.113281 8.3125 -38.71875 C 9.019531 -38.332031 9.695312 -37.804688 10.34375 -37.140625 L 28.578125 -17.625 L 26.609375 -37.203125 C 26.484375 -38.359375 26.773438 -39.375 27.484375 -40.25 C 28.203125 -41.125 29.144531 -41.617188 30.3125 -41.734375 C 31.46875 -41.859375 32.484375 -41.5625 33.359375 -40.84375 C 34.234375 -40.125 34.734375 -39.1875 34.859375 -38.03125 L 37.890625 -7.828125 C 38.015625 -6.660156 37.707031 -5.628906 36.96875 -4.734375 C 36.226562 -3.835938 35.285156 -3.332031 34.140625 -3.21875 L 33.859375 -3.1875 C 32.835938 -3.082031 31.984375 -3.222656 31.296875 -3.609375 C 30.609375 -4.003906 29.9375 -4.53125 29.28125 -5.1875 L 10.359375 -25.4375 L 12.421875 -5.09375 C 12.535156 -3.9375 12.234375 -2.914062 11.515625 -2.03125 C 10.804688 -1.15625 9.867188 -0.660156 8.703125 -0.546875 C 7.554688 -0.429688 6.546875 -0.726562 5.671875 -1.4375 C 4.796875 -2.15625 4.300781 -3.09375 4.1875 -4.25 Z M 4.1875 -4.25 "/></g></g></g><g fill="#000000" fill-opacity="1"><g transform="translate(375.255288, 85.166941)"><g><path d="M 6.09375 -9.703125 C 6.601562 -9.679688 7.046875 -9.585938 7.421875 -9.421875 C 7.796875 -9.253906 8.171875 -9.007812 8.546875 -8.6875 C 9.359375 -8.03125 10.15625 -7.515625 10.9375 -7.140625 C 11.71875 -6.773438 12.582031 -6.566406 13.53125 -6.515625 C 15.15625 -6.421875 16.457031 -6.847656 17.4375 -7.796875 C 18.414062 -8.742188 18.96875 -10.328125 19.09375 -12.546875 L 20.234375 -33.234375 C 20.296875 -34.378906 20.757812 -35.335938 21.625 -36.109375 C 22.488281 -36.878906 23.5 -37.234375 24.65625 -37.171875 C 25.820312 -37.109375 26.785156 -36.644531 27.546875 -35.78125 C 28.316406 -34.914062 28.671875 -33.910156 28.609375 -32.765625 L 27.453125 -11.6875 C 27.203125 -7.289062 25.859375 -3.96875 23.421875 -1.71875 C 20.992188 0.519531 17.585938 1.519531 13.203125 1.28125 C 11.015625 1.15625 9.125 0.726562 7.53125 0 C 5.9375 -0.71875 4.53125 -1.585938 3.3125 -2.609375 C 2.894531 -2.953125 2.546875 -3.421875 2.265625 -4.015625 C 1.992188 -4.617188 1.875 -5.242188 1.90625 -5.890625 C 1.96875 -7.015625 2.398438 -7.945312 3.203125 -8.6875 C 4.015625 -9.425781 4.976562 -9.765625 6.09375 -9.703125 Z M 6.09375 -9.703125 "/></g></g></g><g fill="#000000" fill-opacity="1"><g transform="translate(413.973865, 87.50594)"><g><path d="M 3.53125 -4.75 L 22.75 -31.40625 C 23.4375 -32.320312 24.242188 -32.984375 25.171875 -33.390625 C 26.097656 -33.796875 27.125 -33.878906 28.25 -33.640625 L 28.75 -33.53125 C 29.875 -33.289062 30.765625 -32.800781 31.421875 -32.0625 C 32.085938 -31.320312 32.539062 -30.394531 32.78125 -29.28125 L 39.578125 2.890625 C 39.691406 3.710938 39.710938 4.285156 39.640625 4.609375 C 39.410156 5.710938 38.84375 6.566406 37.9375 7.171875 C 37.03125 7.785156 36.023438 7.976562 34.921875 7.75 C 33.960938 7.539062 33.21875 7.109375 32.6875 6.453125 C 32.15625 5.804688 31.785156 5.015625 31.578125 4.078125 L 30.3125 -2.328125 L 13.890625 -5.8125 L 9.953125 -0.234375 C 9.429688 0.515625 8.796875 1.039062 8.046875 1.34375 C 7.296875 1.65625 6.492188 1.71875 5.640625 1.53125 C 4.578125 1.3125 3.757812 0.75 3.1875 -0.15625 C 2.613281 -1.0625 2.441406 -2.046875 2.671875 -3.109375 C 2.734375 -3.390625 2.835938 -3.671875 2.984375 -3.953125 C 3.140625 -4.234375 3.320312 -4.5 3.53125 -4.75 Z M 18.453125 -12.40625 L 28.8125 -10.21875 L 26.234375 -23.625 Z M 18.453125 -12.40625 "/></g></g></g><g fill="#000000" fill-opacity="1"><g transform="translate(462.299954, 98.623826)"><g><path d="M 5.796875 -2.265625 L 16.609375 -29.984375 C 17.023438 -31.066406 17.757812 -31.835938 18.8125 -32.296875 C 19.875 -32.753906 20.953125 -32.773438 22.046875 -32.359375 L 41.734375 -24.671875 C 42.722656 -24.285156 43.425781 -23.625 43.84375 -22.6875 C 44.257812 -21.757812 44.273438 -20.800781 43.890625 -19.8125 C 43.503906 -18.820312 42.84375 -18.128906 41.90625 -17.734375 C 40.976562 -17.335938 40.019531 -17.332031 39.03125 -17.71875 L 23.1875 -23.890625 L 20.375 -16.6875 L 33.9375 -11.40625 C 34.925781 -11.019531 35.625 -10.351562 36.03125 -9.40625 C 36.4375 -8.46875 36.445312 -7.507812 36.0625 -6.53125 C 35.6875 -5.550781 35.03125 -4.859375 34.09375 -4.453125 C 33.164062 -4.054688 32.207031 -4.050781 31.21875 -4.4375 L 17.65625 -9.71875 L 14.75 -2.25 L 30.859375 4.015625 C 31.835938 4.398438 32.53125 5.0625 32.9375 6 C 33.351562 6.945312 33.367188 7.910156 32.984375 8.890625 C 32.597656 9.867188 31.9375 10.554688 31 10.953125 C 30.070312 11.347656 29.117188 11.351562 28.140625 10.96875 L 8.1875 3.1875 C 7.09375 2.769531 6.3125 2.03125 5.84375 0.96875 C 5.382812 -0.09375 5.367188 -1.171875 5.796875 -2.265625 Z M 5.796875 -2.265625 "/></g></g></g><g fill="#000000" fill-opacity="1"><g transform="translate(503.884379, 116.060023)"><g/></g></g><g fill="#000000" fill-opacity="1"><g transform="translate(525.908961, 127.685232)"><g><path d="M 27.328125 -27.765625 C 28.210938 -27.128906 28.78125 -26.375 29.03125 -25.5 C 29.289062 -24.632812 29.3125 -23.769531 29.09375 -22.90625 L 22.484375 2.734375 L 44.859375 -11.96875 C 45.503906 -12.375 46.265625 -12.59375 47.140625 -12.625 C 48.015625 -12.65625 48.863281 -12.378906 49.6875 -11.796875 C 50.632812 -11.117188 51.210938 -10.238281 51.421875 -9.15625 C 51.628906 -8.082031 51.390625 -7.066406 50.703125 -6.109375 C 50.515625 -5.847656 50.289062 -5.609375 50.03125 -5.390625 C 49.78125 -5.179688 49.53125 -5.003906 49.28125 -4.859375 L 21.75 12.1875 C 19.738281 13.46875 17.816406 13.453125 15.984375 12.140625 L 15.53125 11.828125 C 13.707031 10.515625 13.066406 8.695312 13.609375 6.375 L 20.734375 -24.921875 C 20.804688 -25.265625 20.898438 -25.59375 21.015625 -25.90625 C 21.128906 -26.226562 21.289062 -26.539062 21.5 -26.84375 C 22.175781 -27.789062 23.078125 -28.347656 24.203125 -28.515625 C 25.335938 -28.691406 26.378906 -28.441406 27.328125 -27.765625 Z M 27.328125 -27.765625 "/></g></g></g><g fill="#000000" fill-opacity="1"><g transform="translate(564.102009, 155.761558)"><g><path d="M 27.234375 -20.8125 C 28.046875 -21.625 29.03125 -22.03125 30.1875 -22.03125 C 31.351562 -22.039062 32.347656 -21.632812 33.171875 -20.8125 L 42.546875 -11.453125 C 43.984375 -10.015625 45.140625 -8.5 46.015625 -6.90625 C 46.890625 -5.320312 47.421875 -3.707031 47.609375 -2.0625 C 47.796875 -0.414062 47.59375 1.226562 47 2.875 C 46.40625 4.519531 45.351562 6.101562 43.84375 7.625 L 43.765625 7.703125 C 41.609375 9.859375 39.378906 11.109375 37.078125 11.453125 C 34.773438 11.804688 32.46875 11.5 30.15625 10.53125 L 29.296875 19.65625 C 29.210938 20.300781 29.085938 20.890625 28.921875 21.421875 C 28.753906 21.953125 28.4375 22.445312 27.96875 22.90625 C 27.144531 23.738281 26.191406 24.113281 25.109375 24.03125 C 24.035156 23.957031 23.140625 23.5625 22.421875 22.84375 C 21.742188 22.164062 21.320312 21.445312 21.15625 20.6875 C 21 19.9375 20.957031 19.160156 21.03125 18.359375 L 22.5625 5.25 L 17.8125 0.5 L 11.921875 6.40625 C 11.097656 7.238281 10.101562 7.65625 8.9375 7.65625 C 7.78125 7.65625 6.796875 7.25 5.984375 6.4375 C 5.160156 5.613281 4.742188 4.625 4.734375 3.46875 C 4.734375 2.3125 5.144531 1.316406 5.96875 0.484375 Z M 30.78125 -12.484375 L 23.046875 -4.734375 L 29.0625 1.28125 C 30.53125 2.75 32 3.523438 33.46875 3.609375 C 34.945312 3.703125 36.265625 3.171875 37.421875 2.015625 L 37.5 1.9375 C 38.8125 0.625 39.367188 -0.753906 39.171875 -2.203125 C 38.972656 -3.660156 38.144531 -5.125 36.6875 -6.59375 Z M 30.78125 -12.484375 "/></g></g></g><g fill="#000000" fill-opacity="1"><g transform="translate(305.461108, 703.922589)"><g><path d="M 39.464844 -35.558594 L 38.878906 -28.34375 L 48.878906 -27.53125 L 47.183594 -6.644531 L 56.164062 -5.914062 L 59.933594 -52.316406 L 50.953125 -53.046875 L 49.464844 -34.746094 Z M 42.566406 -21.46875 C 32.609375 -25.363281 28.765625 -32.867188 29.347656 -40.011719 L 29.367188 -40.28125 L 41.753906 -39.277344 L 42.320312 -46.285156 L 29.9375 -47.289062 L 30.503906 -54.230469 L 21.519531 -54.960938 L 20.957031 -48.019531 L 8.710938 -49.015625 L 8.140625 -42.007812 L 20.386719 -41.011719 L 20.367188 -40.738281 C 19.75 -33.1875 14.777344 -25.921875 4.449219 -23.542969 L 8.234375 -16.179688 C 15.492188 -17.847656 20.761719 -22.011719 23.957031 -27.640625 C 26.378906 -22.03125 30.867188 -17.421875 37.710938 -14.8125 Z M 23.191406 -0.511719 L 24.160156 -12.417969 L 15.179688 -13.148438 L 13.628906 5.902344 L 56.359375 9.375 L 56.9375 2.230469 Z M 23.191406 -0.511719 "/></g></g></g><g fill="#000000" fill-opacity="1"><g transform="translate(382.236422, 709.010517)"><g><path d="M 44.027344 -60.835938 L 45.976562 -36.816406 L 40.875 -36.402344 L 39.003906 -59.402344 L 30.636719 -58.71875 L 33.933594 -18.167969 C 24.285156 -22.246094 20.308594 -32.402344 19.421875 -43.359375 L 19.28125 -45.058594 L 28.671875 -45.820312 L 28.078125 -53.101562 L -0.292969 -50.796875 L 0.296875 -43.515625 L 10.574219 -44.351562 L 10.710938 -42.648438 C 11.691406 -30.605469 9.597656 -19.273438 0.71875 -13.070312 L 6.648438 -6.703125 C 12.214844 -10.648438 15.410156 -16.867188 16.863281 -24.246094 C 19.617188 -18.167969 23.632812 -13.425781 29.457031 -10.886719 L 33.945312 -18.03125 L 35.421875 0.132812 L 43.789062 -0.546875 L 41.472656 -29.054688 L 46.574219 -29.46875 L 49.117188 1.828125 L 57.625 1.136719 L 52.53125 -61.527344 Z M 44.027344 -60.835938 "/></g></g></g></svg>